M48
;Layer_Color=9474304
;FILE_FORMAT=2:4
INCH,LZ
;TYPE=PLATED
T1F00S00C0.0079
T2F00S00C0.0150
T3F00S00C0.0280
T4F00S00C0.0295
T5F00S00C0.0335
T6F00S00C0.0394
T7F00S00C0.0402
T8F00S00C0.0413
T9F00S00C0.0488
T10F00S00C0.0512
T11F00S00C0.0630
T12F00S00C0.2000
%
T01
X024253Y026993
X024647
Y027387
X024253
T02
X03274Y02976
X026799Y028174
X02582Y02815
X02458Y02949
X01552Y03688
X013735Y037329
X01168Y03848
X01002Y03995
X008699Y0417
X01244Y04286
X01201Y04412
X01379Y04416
X00736Y03734
X01669Y03642
X01797Y03719
X01839Y03761
X02046Y03722
X02015Y03838
X02007Y03909
X02127Y03829
X020815Y03568
X02172Y03458
X02664Y03466
X02718Y03477
X02658Y0369
X02705Y03845
X02749Y03901
X02793Y03782
X03031Y035205
X03029Y03183
X02715Y0316
X02579Y03203
X02562Y03261
X02516Y04032
X025204Y04115
X025759Y041087
X02392Y04002
X022511Y041398
X02123Y04444
X02726Y043323
X02727Y04667
X03094Y04566
X03301Y0447
X0332Y0344
X033665Y047365
X02426Y04789
T03
X01654Y04489
T04
X02457Y006972
Y010909
Y01169
Y015627
T05
X01857Y00969
X02157
Y01569
X01857
T06
X031594Y00519
X034546
T07
X02432Y02569
X02532
X019686Y04294
X018686
Y04394
X019686
Y04494
X018686
X02882Y049434
X02982
T08
X018179Y00769
X022461
T09
X02992Y00809
X034152
Y023247
X031003
T10
X00325Y00853
Y01103
X020909Y004456
X02957
T11
X003794Y03394
X004794Y03494
X003794Y03594
X005794
Y03394
T12
X001969Y001969
X035433
Y051181
X001969
M30
