G04*
G04 #@! TF.GenerationSoftware,Altium Limited,Altium Designer,21.3.2 (30)*
G04*
G04 Layer_Color=8388736*
%FSLAX24Y24*%
%MOIN*%
G70*
G04*
G04 #@! TF.SameCoordinates,7650AEDF-855E-494F-9EC9-4397D0FFA18E*
G04*
G04*
G04 #@! TF.FilePolarity,Negative*
G04*
G01*
G75*
%ADD20O,0.0375X0.1025*%
%ADD21O,0.1025X0.0375*%
%ADD22R,0.0730X0.1017*%
%ADD23R,0.0356X0.0179*%
%ADD24R,0.0572X0.1143*%
%ADD25O,0.0848X0.0316*%
%ADD26O,0.0316X0.0848*%
%ADD27R,0.1694X0.0552*%
%ADD28R,0.1694X0.0631*%
%ADD29R,0.1182X0.0631*%
%ADD30R,0.4230X0.3270*%
%ADD31R,0.0410X0.1590*%
%ADD32R,0.0374X0.0531*%
%ADD33R,0.1655X0.1064*%
%ADD34R,0.1202X0.1045*%
%ADD35R,0.0651X0.0690*%
%ADD36R,0.0394X0.0709*%
%ADD37R,0.0492X0.0236*%
%ADD38R,0.0709X0.0394*%
%ADD39R,0.0828X0.0611*%
%ADD40R,0.0611X0.0828*%
%ADD41R,0.0789X0.0316*%
%ADD42R,0.1143X0.0572*%
%ADD43R,0.0354X0.0315*%
%ADD44R,0.0671X0.0671*%
%ADD45R,0.0671X0.0631*%
%ADD46R,0.1045X0.1202*%
%ADD47R,0.0454X0.0572*%
%ADD48R,0.0344X0.0454*%
%ADD49R,0.0611X0.0867*%
%ADD50R,0.0824X0.0277*%
%ADD51R,0.0277X0.0237*%
%ADD52C,0.0848*%
%ADD53R,0.0690X0.0690*%
%ADD54C,0.0690*%
%ADD55C,0.0615*%
%ADD56R,0.0615X0.0615*%
%ADD57C,0.0630*%
%ADD58R,0.0630X0.0630*%
%ADD59R,0.0789X0.0789*%
%ADD60C,0.0789*%
%ADD61R,0.0618X0.0618*%
%ADD62C,0.0618*%
%ADD63C,0.1025*%
%ADD64O,0.0848X0.1615*%
%ADD65R,0.0610X0.0610*%
%ADD66C,0.0610*%
%ADD67C,0.0492*%
%ADD68R,0.0492X0.0492*%
%ADD69C,0.2180*%
%ADD70C,0.0330*%
%ADD71C,0.0277*%
%ADD72C,0.0580*%
%ADD73C,0.0380*%
D20*
X12117Y31298D02*
D03*
X12550D02*
D03*
X12983D02*
D03*
X13416D02*
D03*
X13850D02*
D03*
X15818D02*
D03*
X16251D02*
D03*
X16684D02*
D03*
X17117D02*
D03*
X17550D02*
D03*
X17983D02*
D03*
Y23582D02*
D03*
X17550D02*
D03*
X17117D02*
D03*
X16684D02*
D03*
X16251D02*
D03*
X15818D02*
D03*
X13850D02*
D03*
X13416D02*
D03*
X12983D02*
D03*
X12550D02*
D03*
X12117D02*
D03*
D21*
X19657Y24940D02*
D03*
Y25373D02*
D03*
Y25806D02*
D03*
Y26239D02*
D03*
Y26909D02*
D03*
Y27420D02*
D03*
Y28090D02*
D03*
Y28523D02*
D03*
Y28956D02*
D03*
Y29389D02*
D03*
Y29822D02*
D03*
X10483D02*
D03*
Y29389D02*
D03*
Y28956D02*
D03*
Y28523D02*
D03*
Y28090D02*
D03*
Y26239D02*
D03*
Y25806D02*
D03*
Y25373D02*
D03*
Y24940D02*
D03*
D22*
X24450Y27190D02*
D03*
D23*
X25011Y26796D02*
D03*
Y26993D02*
D03*
Y27190D02*
D03*
Y27387D02*
D03*
Y27584D02*
D03*
X23889Y26796D02*
D03*
Y26993D02*
D03*
Y27190D02*
D03*
Y27387D02*
D03*
Y27584D02*
D03*
D24*
X25119Y33190D02*
D03*
X23997D02*
D03*
X25119Y28690D02*
D03*
X23997D02*
D03*
X25119Y30190D02*
D03*
X23997D02*
D03*
X25119Y31690D02*
D03*
X23997D02*
D03*
X35877Y31190D02*
D03*
X34755D02*
D03*
X35877Y32690D02*
D03*
X34755D02*
D03*
X18759Y46777D02*
D03*
X19881D02*
D03*
D25*
X26493Y42042D02*
D03*
Y41727D02*
D03*
Y41412D02*
D03*
Y41097D02*
D03*
Y40783D02*
D03*
Y40468D02*
D03*
Y40153D02*
D03*
Y39838D02*
D03*
X23147D02*
D03*
Y40153D02*
D03*
Y40468D02*
D03*
Y40783D02*
D03*
Y41097D02*
D03*
Y41412D02*
D03*
Y41727D02*
D03*
Y42042D02*
D03*
D26*
X25922Y39267D02*
D03*
X25607D02*
D03*
X25292D02*
D03*
X24977D02*
D03*
X24663D02*
D03*
X24348D02*
D03*
X24033D02*
D03*
X23718D02*
D03*
Y42613D02*
D03*
X24033D02*
D03*
X24348D02*
D03*
X24663D02*
D03*
X24977D02*
D03*
X25292D02*
D03*
X25607D02*
D03*
X25922D02*
D03*
D27*
X29820Y41672D02*
D03*
Y39704D02*
D03*
D28*
Y40688D02*
D03*
D29*
X31320Y49550D02*
D03*
Y48330D02*
D03*
X9570Y41700D02*
D03*
Y42920D02*
D03*
X13320D02*
D03*
Y41700D02*
D03*
X11570Y42920D02*
D03*
Y41700D02*
D03*
D30*
X34230Y40805D02*
D03*
D31*
X35570Y36690D02*
D03*
X34900D02*
D03*
X34230D02*
D03*
X33560D02*
D03*
X32890D02*
D03*
D32*
X8115Y42940D02*
D03*
X7525D02*
D03*
X8115Y41190D02*
D03*
X7525D02*
D03*
X15320Y41690D02*
D03*
X14729D02*
D03*
X3794Y38190D02*
D03*
X3204D02*
D03*
X14729Y42940D02*
D03*
X15320D02*
D03*
D33*
X6895Y47877D02*
D03*
X3745D02*
D03*
X35395Y27190D02*
D03*
X32245D02*
D03*
D34*
X5625Y44190D02*
D03*
X3676D02*
D03*
D35*
X3401Y39940D02*
D03*
X4129D02*
D03*
D36*
X4405Y41940D02*
D03*
X3224D02*
D03*
X31570Y33690D02*
D03*
X32751D02*
D03*
X32751Y31190D02*
D03*
X31570D02*
D03*
X32751Y32440D02*
D03*
X31570D02*
D03*
X28911Y31190D02*
D03*
X27729D02*
D03*
Y25566D02*
D03*
X28911D02*
D03*
Y26940D02*
D03*
X27729D02*
D03*
D37*
X18501Y41044D02*
D03*
Y40336D02*
D03*
D38*
X19820Y40926D02*
D03*
Y39745D02*
D03*
X28070Y46706D02*
D03*
Y45525D02*
D03*
X10114Y44697D02*
D03*
Y45878D02*
D03*
D39*
X29570Y46538D02*
D03*
Y45279D02*
D03*
D40*
X32200Y46440D02*
D03*
X30940D02*
D03*
D41*
X32121Y44690D02*
D03*
X31334Y44316D02*
D03*
Y45064D02*
D03*
D42*
X35320Y46844D02*
D03*
Y45722D02*
D03*
X28944Y36629D02*
D03*
Y37751D02*
D03*
X25844Y47062D02*
D03*
Y45940D02*
D03*
X23469Y47062D02*
D03*
Y45940D02*
D03*
X21094D02*
D03*
Y47062D02*
D03*
D43*
X33283Y46903D02*
D03*
Y46155D02*
D03*
X34070Y46529D02*
D03*
D44*
X33570Y48428D02*
D03*
Y49688D02*
D03*
D45*
X35570Y49698D02*
D03*
Y48517D02*
D03*
X26070D02*
D03*
Y49698D02*
D03*
X23695D02*
D03*
Y48517D02*
D03*
X21320Y49698D02*
D03*
Y48517D02*
D03*
D46*
X28320Y32940D02*
D03*
Y34889D02*
D03*
D47*
X27907Y29875D02*
D03*
X28694D02*
D03*
Y28005D02*
D03*
X27907D02*
D03*
D48*
X11590Y44609D02*
D03*
X12889D02*
D03*
X13755D02*
D03*
X14621D02*
D03*
X12023D02*
D03*
X13322D02*
D03*
X14188D02*
D03*
X15054D02*
D03*
X12456D02*
D03*
D49*
X15983Y46135D02*
D03*
X11157D02*
D03*
Y49147D02*
D03*
X15983D02*
D03*
D50*
X15781Y44521D02*
D03*
D51*
X10446Y40196D02*
D03*
Y39940D02*
D03*
Y39684D02*
D03*
X11194D02*
D03*
Y39940D02*
D03*
Y40196D02*
D03*
D52*
X29920Y8090D02*
D03*
X31003Y23247D02*
D03*
X34152D02*
D03*
Y8090D02*
D03*
D53*
X19686Y42940D02*
D03*
D54*
X18686D02*
D03*
X19686Y43940D02*
D03*
Y44940D02*
D03*
X18686Y43940D02*
D03*
Y44940D02*
D03*
D55*
X18570Y15690D02*
D03*
Y9690D02*
D03*
X21570Y15690D02*
D03*
D56*
Y9690D02*
D03*
D57*
X22461Y7690D02*
D03*
D58*
X18179D02*
D03*
D59*
X3250Y8530D02*
D03*
D60*
Y11030D02*
D03*
D61*
X28820Y49434D02*
D03*
X25320Y25690D02*
D03*
D62*
X29820Y49434D02*
D03*
X24320Y25690D02*
D03*
D63*
X4794Y34940D02*
D03*
X3794Y35940D02*
D03*
Y33940D02*
D03*
X5794D02*
D03*
Y35940D02*
D03*
D64*
X29570Y4456D02*
D03*
X20909D02*
D03*
D65*
X31594Y5190D02*
D03*
D66*
X34546D02*
D03*
D67*
X24570Y10909D02*
D03*
Y15627D02*
D03*
D68*
Y6972D02*
D03*
Y11690D02*
D03*
D69*
X35433Y51181D02*
D03*
X1969D02*
D03*
Y1969D02*
D03*
X35433D02*
D03*
D70*
X27930Y37820D02*
D03*
X30310Y35205D02*
D03*
X24580Y29490D02*
D03*
X33010Y44700D02*
D03*
X27260Y43323D02*
D03*
X27270Y46670D02*
D03*
X21230Y44440D02*
D03*
X22511Y41398D02*
D03*
X21720Y34580D02*
D03*
X26799Y28174D02*
D03*
X20070Y39090D02*
D03*
X20460Y37220D02*
D03*
X25620Y32610D02*
D03*
X26580Y36900D02*
D03*
X26640Y34660D02*
D03*
X20815Y35680D02*
D03*
X25790Y32030D02*
D03*
X20150Y38380D02*
D03*
X18390Y37610D02*
D03*
X17970Y37190D02*
D03*
X21270Y38290D02*
D03*
X16690Y36420D02*
D03*
X25204Y41150D02*
D03*
X25759Y41087D02*
D03*
X23920Y40020D02*
D03*
X27180Y34770D02*
D03*
X27490Y39010D02*
D03*
X27050Y38450D02*
D03*
X30940Y45660D02*
D03*
X33665Y47365D02*
D03*
X33200Y34400D02*
D03*
X30290Y31830D02*
D03*
X25820Y28150D02*
D03*
X12440Y42860D02*
D03*
X12010Y44120D02*
D03*
X10020Y39950D02*
D03*
X13790Y44160D02*
D03*
X13735Y37329D02*
D03*
X8699Y41700D02*
D03*
X11680Y38480D02*
D03*
X32740Y29760D02*
D03*
X25160Y40320D02*
D03*
X15520Y36880D02*
D03*
X24260Y47890D02*
D03*
X27150Y31600D02*
D03*
D71*
X24647Y26993D02*
D03*
X24253D02*
D03*
X24647Y27387D02*
D03*
X24253D02*
D03*
D72*
X16540Y44890D02*
D03*
D73*
X7360Y37340D02*
D03*
M02*
