G04*
G04 #@! TF.GenerationSoftware,Altium Limited,Altium Designer,21.3.2 (30)*
G04*
G04 Layer_Color=16711935*
%FSLAX24Y24*%
%MOIN*%
G70*
G04*
G04 #@! TF.SameCoordinates,7650AEDF-855E-494F-9EC9-4397D0FFA18E*
G04*
G04*
G04 #@! TF.FilePolarity,Negative*
G04*
G01*
G75*
%ADD52C,0.0848*%
%ADD53R,0.0690X0.0690*%
%ADD54C,0.0690*%
%ADD55C,0.0615*%
%ADD56R,0.0615X0.0615*%
%ADD57C,0.0630*%
%ADD58R,0.0630X0.0630*%
%ADD59R,0.0789X0.0789*%
%ADD60C,0.0789*%
%ADD61R,0.0618X0.0618*%
%ADD62C,0.0618*%
%ADD63C,0.1025*%
%ADD64O,0.0848X0.1615*%
%ADD65R,0.0610X0.0610*%
%ADD66C,0.0610*%
%ADD67C,0.0492*%
%ADD68R,0.0492X0.0492*%
%ADD69C,0.2180*%
%ADD70C,0.0330*%
%ADD71C,0.0277*%
%ADD72C,0.0580*%
%ADD73C,0.0380*%
D52*
X29920Y8090D02*
D03*
X31003Y23247D02*
D03*
X34152D02*
D03*
Y8090D02*
D03*
D53*
X19686Y42940D02*
D03*
D54*
X18686D02*
D03*
X19686Y43940D02*
D03*
Y44940D02*
D03*
X18686Y43940D02*
D03*
Y44940D02*
D03*
D55*
X18570Y15690D02*
D03*
Y9690D02*
D03*
X21570Y15690D02*
D03*
D56*
Y9690D02*
D03*
D57*
X22461Y7690D02*
D03*
D58*
X18179D02*
D03*
D59*
X3250Y8530D02*
D03*
D60*
Y11030D02*
D03*
D61*
X28820Y49434D02*
D03*
X25320Y25690D02*
D03*
D62*
X29820Y49434D02*
D03*
X24320Y25690D02*
D03*
D63*
X4794Y34940D02*
D03*
X3794Y35940D02*
D03*
Y33940D02*
D03*
X5794D02*
D03*
Y35940D02*
D03*
D64*
X29570Y4456D02*
D03*
X20909D02*
D03*
D65*
X31594Y5190D02*
D03*
D66*
X34546D02*
D03*
D67*
X24570Y10909D02*
D03*
Y15627D02*
D03*
D68*
Y6972D02*
D03*
Y11690D02*
D03*
D69*
X35433Y51181D02*
D03*
X1969D02*
D03*
Y1969D02*
D03*
X35433D02*
D03*
D70*
X27930Y37820D02*
D03*
X30310Y35205D02*
D03*
X24580Y29490D02*
D03*
X33010Y44700D02*
D03*
X27260Y43323D02*
D03*
X27270Y46670D02*
D03*
X21230Y44440D02*
D03*
X22511Y41398D02*
D03*
X21720Y34580D02*
D03*
X26799Y28174D02*
D03*
X20070Y39090D02*
D03*
X20460Y37220D02*
D03*
X25620Y32610D02*
D03*
X26580Y36900D02*
D03*
X26640Y34660D02*
D03*
X20815Y35680D02*
D03*
X25790Y32030D02*
D03*
X20150Y38380D02*
D03*
X18390Y37610D02*
D03*
X17970Y37190D02*
D03*
X21270Y38290D02*
D03*
X16690Y36420D02*
D03*
X25204Y41150D02*
D03*
X25759Y41087D02*
D03*
X23920Y40020D02*
D03*
X27180Y34770D02*
D03*
X27490Y39010D02*
D03*
X27050Y38450D02*
D03*
X30940Y45660D02*
D03*
X33665Y47365D02*
D03*
X33200Y34400D02*
D03*
X30290Y31830D02*
D03*
X25820Y28150D02*
D03*
X12440Y42860D02*
D03*
X12010Y44120D02*
D03*
X10020Y39950D02*
D03*
X13790Y44160D02*
D03*
X13735Y37329D02*
D03*
X8699Y41700D02*
D03*
X11680Y38480D02*
D03*
X32740Y29760D02*
D03*
X25160Y40320D02*
D03*
X15520Y36880D02*
D03*
X24260Y47890D02*
D03*
X27150Y31600D02*
D03*
D71*
X24647Y26993D02*
D03*
X24253D02*
D03*
X24647Y27387D02*
D03*
X24253D02*
D03*
D72*
X16540Y44890D02*
D03*
D73*
X7360Y37340D02*
D03*
M02*
