G04*
G04 #@! TF.GenerationSoftware,Altium Limited,Altium Designer,21.3.2 (30)*
G04*
G04 Layer_Physical_Order=2*
G04 Layer_Color=16711680*
%FSLAX24Y24*%
%MOIN*%
G70*
G04*
G04 #@! TF.SameCoordinates,7650AEDF-855E-494F-9EC9-4397D0FFA18E*
G04*
G04*
G04 #@! TF.FilePolarity,Positive*
G04*
G01*
G75*
%ADD57C,0.0630*%
%ADD58R,0.0630X0.0630*%
%ADD61R,0.0618X0.0618*%
%ADD62C,0.0618*%
%ADD65R,0.0610X0.0610*%
%ADD66C,0.0610*%
%ADD67C,0.0492*%
%ADD68R,0.0492X0.0492*%
%ADD99C,0.1000*%
%ADD100C,0.0200*%
%ADD101C,0.0090*%
%ADD104C,0.0768*%
%ADD105R,0.0610X0.0610*%
%ADD106C,0.0535*%
%ADD107R,0.0535X0.0535*%
%ADD108R,0.0709X0.0709*%
%ADD109C,0.0709*%
%ADD110C,0.0945*%
%ADD111O,0.0768X0.1535*%
%ADD112C,0.2100*%
%ADD113C,0.0250*%
%ADD114C,0.0197*%
%ADD115C,0.0500*%
%ADD116C,0.0300*%
G36*
X38620Y53731D02*
X38620Y53730D01*
Y25010D01*
X38650Y24976D01*
X38630Y24930D01*
X23870D01*
X23815Y24875D01*
X23870Y24820D01*
Y15270D01*
X320D01*
X66Y15016D01*
X20Y15035D01*
Y53765D01*
X55Y53800D01*
X38620Y53731D01*
D02*
G37*
G36*
X20840Y6620D02*
X20850Y6630D01*
X20910D01*
X20840Y6620D01*
D02*
G37*
%LPC*%
G36*
X29763Y50308D02*
X18686D01*
X18579Y50263D01*
X18535Y50156D01*
Y45345D01*
X18518D01*
X18281Y45108D01*
Y45067D01*
X16858D01*
X16685Y45240D01*
X16590D01*
Y44890D01*
Y44540D01*
X16685D01*
X16890Y44745D01*
Y44763D01*
X18290D01*
X18518Y44535D01*
X18628D01*
X18651Y44485D01*
X18613Y44392D01*
Y44285D01*
X18543D01*
X18341Y44083D01*
Y43797D01*
X18543Y43595D01*
X18829D01*
X19031Y43797D01*
Y44083D01*
X18916Y44198D01*
Y44283D01*
X18936D01*
X18948Y44288D01*
X19476D01*
X19497Y44238D01*
X19341Y44083D01*
Y43797D01*
X19543Y43595D01*
X19829D01*
X20031Y43797D01*
Y44083D01*
X19876Y44238D01*
X19896Y44288D01*
X21148D01*
X21162Y44275D01*
X21298D01*
X21395Y44372D01*
Y44508D01*
X21298Y44605D01*
X21162D01*
X21148Y44592D01*
X19896D01*
X19876Y44642D01*
X20023Y44788D01*
X25569D01*
X25608Y44750D01*
Y41169D01*
X25594Y41156D01*
Y41019D01*
X25691Y40922D01*
X25828D01*
X25924Y41019D01*
Y41156D01*
X25911Y41169D01*
Y44813D01*
X25867Y44920D01*
X25739Y45047D01*
X25632Y45092D01*
X20023D01*
X19829Y45285D01*
X19543D01*
X19341Y45083D01*
Y44797D01*
X19497Y44642D01*
X19476Y44592D01*
X18981D01*
X18961Y44642D01*
X19091Y44772D01*
Y44890D01*
X18686D01*
Y44990D01*
X19091D01*
Y45108D01*
X18854Y45345D01*
X18838D01*
Y50005D01*
X29700D01*
X29728Y49976D01*
Y49843D01*
X29651D01*
X29411Y49604D01*
Y49484D01*
X30229D01*
Y49604D01*
X30032Y49801D01*
Y50039D01*
X29987Y50146D01*
X29870Y50263D01*
X29763Y50308D01*
D02*
G37*
G36*
X29169Y49783D02*
X28471D01*
Y49586D01*
X24313D01*
X24206Y49541D01*
X24161Y49434D01*
Y48025D01*
X24095Y47958D01*
Y47822D01*
X24192Y47725D01*
X24328D01*
X24425Y47822D01*
Y47848D01*
X24464Y47943D01*
Y49283D01*
X28471D01*
Y49085D01*
X29169D01*
Y49783D01*
D02*
G37*
G36*
X30229Y49384D02*
X29870D01*
Y49025D01*
X29989D01*
X30229Y49265D01*
Y49384D01*
D02*
G37*
G36*
X29770D02*
X29411D01*
Y49265D01*
X29651Y49025D01*
X29770D01*
Y49384D01*
D02*
G37*
G36*
X16490Y45240D02*
X16395D01*
X16190Y45035D01*
Y44940D01*
X16490D01*
Y45240D01*
D02*
G37*
G36*
Y44840D02*
X16190D01*
Y44745D01*
X16395Y44540D01*
X16490D01*
Y44840D01*
D02*
G37*
G36*
X31008Y45825D02*
X30872D01*
X30775Y45728D01*
Y45592D01*
X30872Y45495D01*
X31008D01*
X31025Y45511D01*
X31080Y45488D01*
X31104Y45498D01*
X32830D01*
X32858Y45470D01*
Y44782D01*
X32845Y44768D01*
Y44632D01*
X32942Y44535D01*
X33078D01*
X33175Y44632D01*
Y44768D01*
X33162Y44782D01*
Y45533D01*
X33117Y45640D01*
X33000Y45757D01*
X32893Y45802D01*
X31090D01*
X31049Y45784D01*
X31008Y45825D01*
D02*
G37*
G36*
X12103Y44345D02*
X12060D01*
Y44170D01*
X12235D01*
Y44213D01*
X12103Y44345D01*
D02*
G37*
G36*
X13858Y44325D02*
X13722D01*
X13708Y44312D01*
X12607D01*
X12500Y44267D01*
X12333Y44100D01*
X12288Y43993D01*
Y42942D01*
X12275Y42928D01*
Y42792D01*
X12372Y42695D01*
X12508D01*
X12605Y42792D01*
Y42928D01*
X12592Y42942D01*
Y43930D01*
X12670Y44008D01*
X13708D01*
X13722Y43995D01*
X13858D01*
X13955Y44092D01*
Y44228D01*
X13858Y44325D01*
D02*
G37*
G36*
X12235Y44070D02*
X12060D01*
Y43895D01*
X12103D01*
X12235Y44027D01*
Y44070D01*
D02*
G37*
G36*
X11960Y44345D02*
X11917D01*
X11843Y44272D01*
X10137D01*
X10030Y44227D01*
X9913Y44110D01*
X9868Y44003D01*
Y40117D01*
X9795Y40043D01*
Y40000D01*
X10245D01*
Y40043D01*
X10172Y40117D01*
Y43940D01*
X10200Y43968D01*
X11843D01*
X11917Y43895D01*
X11960D01*
Y44120D01*
Y44345D01*
D02*
G37*
G36*
X27338Y46835D02*
X27202D01*
X27105Y46738D01*
Y46602D01*
X27128Y46578D01*
Y43424D01*
X27095Y43391D01*
Y43254D01*
X27192Y43158D01*
X27328D01*
X27425Y43254D01*
Y43362D01*
X27432Y43378D01*
Y46598D01*
X27435Y46602D01*
Y46738D01*
X27338Y46835D01*
D02*
G37*
G36*
X20031Y43285D02*
X19341D01*
Y42595D01*
X20031D01*
Y43285D01*
D02*
G37*
G36*
X18829D02*
X18543D01*
X18341Y43083D01*
Y42797D01*
X18543Y42595D01*
X18829D01*
X19031Y42797D01*
Y43083D01*
X18829Y43285D01*
D02*
G37*
G36*
X24446Y42059D02*
X15520D01*
X15413Y42014D01*
X15368Y41907D01*
Y36962D01*
X15355Y36948D01*
Y36812D01*
X15452Y36715D01*
X15588D01*
X15685Y36812D01*
Y36948D01*
X15672Y36962D01*
Y41756D01*
X24383D01*
X25039Y41101D01*
Y41082D01*
X25135Y40985D01*
X25272D01*
X25369Y41082D01*
Y41218D01*
X25272Y41315D01*
X25253D01*
X24553Y42014D01*
X24446Y42059D01*
D02*
G37*
G36*
X23988Y40185D02*
X23852D01*
X23838Y40172D01*
X21777D01*
X21670Y40127D01*
X20901Y39358D01*
X20088Y38545D01*
X20082D01*
X19985Y38448D01*
Y38312D01*
X20082Y38215D01*
X20218D01*
X20315Y38312D01*
Y38344D01*
X21116Y39144D01*
X21116Y39144D01*
X21840Y39868D01*
X23838D01*
X23852Y39855D01*
X23988D01*
X24085Y39952D01*
Y40088D01*
X23988Y40185D01*
D02*
G37*
G36*
X10245Y39900D02*
X10070D01*
Y39725D01*
X10113D01*
X10245Y39857D01*
Y39900D01*
D02*
G37*
G36*
X9970D02*
X9795D01*
Y39857D01*
X9927Y39725D01*
X9970D01*
Y39900D01*
D02*
G37*
G36*
X20163Y39315D02*
X20120D01*
Y39140D01*
X20295D01*
Y39183D01*
X20163Y39315D01*
D02*
G37*
G36*
X20020D02*
X19977D01*
X19845Y39183D01*
Y39140D01*
X20020D01*
Y39315D01*
D02*
G37*
G36*
X27558Y39175D02*
X27422D01*
X27325Y39078D01*
Y38942D01*
X27422Y38845D01*
X27558D01*
X27655Y38942D01*
Y39078D01*
X27558Y39175D01*
D02*
G37*
G36*
X22579Y41562D02*
X22442D01*
X22346Y41466D01*
Y41329D01*
X22442Y41233D01*
X22579D01*
X22592Y41246D01*
X24123D01*
X24168Y41201D01*
Y38653D01*
X23957Y38442D01*
X21352D01*
X21338Y38455D01*
X21202D01*
X21105Y38358D01*
Y38222D01*
X21185Y38142D01*
X21164Y38092D01*
X18087D01*
X17980Y38047D01*
X17863Y37930D01*
X17818Y37823D01*
Y37272D01*
X17805Y37258D01*
Y37122D01*
X17902Y37025D01*
X18038D01*
X18135Y37122D01*
Y37258D01*
X18122Y37272D01*
Y37760D01*
X18150Y37788D01*
X18264D01*
X18285Y37738D01*
X18225Y37678D01*
Y37542D01*
X18322Y37445D01*
X18458D01*
X18472Y37458D01*
X19490D01*
X19563Y37488D01*
X20351D01*
X20360Y37438D01*
X20284Y37362D01*
X20120D01*
X20013Y37318D01*
X19637Y36942D01*
X17650D01*
X17622Y36970D01*
Y37847D01*
X17983Y38208D01*
X19520D01*
X19627Y38253D01*
X20177Y38803D01*
X20222Y38910D01*
X20218Y38919D01*
X20295Y38997D01*
Y39040D01*
X19845D01*
Y38997D01*
X19894Y38948D01*
X19457Y38512D01*
X17920D01*
X17813Y38467D01*
X17363Y38017D01*
X17318Y37910D01*
Y36907D01*
X17363Y36800D01*
X17480Y36683D01*
X17587Y36638D01*
X19700D01*
X19807Y36683D01*
X20183Y37059D01*
X20303D01*
X20367Y36995D01*
X20410D01*
Y37220D01*
X20460D01*
Y37270D01*
X20685D01*
Y37313D01*
X20560Y37438D01*
X20569Y37488D01*
X26942D01*
X27050Y37533D01*
X27167Y37650D01*
X27211Y37757D01*
Y38378D01*
X27215Y38382D01*
Y38518D01*
X27118Y38615D01*
X26982D01*
X26885Y38518D01*
Y38382D01*
X26908Y38359D01*
Y37820D01*
X26880Y37792D01*
X24418D01*
X24406Y37842D01*
X25267Y38703D01*
X25312Y38810D01*
Y40238D01*
X25325Y40252D01*
Y40388D01*
X25228Y40485D01*
X25092D01*
X24995Y40388D01*
Y40252D01*
X25008Y40238D01*
Y38873D01*
X24227Y38092D01*
X24027D01*
X24020Y38138D01*
X24127Y38183D01*
X24427Y38483D01*
X24472Y38590D01*
Y41263D01*
X24427Y41371D01*
X24293Y41505D01*
X24186Y41549D01*
X22592D01*
X22579Y41562D01*
D02*
G37*
G36*
X8768Y41865D02*
X8631D01*
X8534Y41768D01*
Y41631D01*
X8548Y41618D01*
Y38533D01*
X8592Y38426D01*
X8630Y38410D01*
X8645Y38373D01*
X8752Y38328D01*
X11598D01*
X11612Y38315D01*
X11748D01*
X11845Y38412D01*
Y38548D01*
X11748Y38645D01*
X11612D01*
X11598Y38632D01*
X8851D01*
Y41618D01*
X8864Y41631D01*
Y41768D01*
X8768Y41865D01*
D02*
G37*
G36*
X7439Y37530D02*
X7281D01*
X7170Y37419D01*
Y37261D01*
X7281Y37150D01*
X7439D01*
X7477Y37188D01*
X12179D01*
X12204Y37178D01*
X13653D01*
X13667Y37164D01*
X13803D01*
X13900Y37261D01*
Y37398D01*
X13803Y37494D01*
X13667D01*
X13653Y37481D01*
X12219D01*
X12194Y37492D01*
X7477D01*
X7439Y37530D01*
D02*
G37*
G36*
X20685Y37170D02*
X20510D01*
Y36995D01*
X20553D01*
X20685Y37127D01*
Y37170D01*
D02*
G37*
G36*
X26648Y37065D02*
X26512D01*
X26415Y36968D01*
Y36832D01*
X26428Y36818D01*
Y36600D01*
X26400Y36572D01*
X16772D01*
X16758Y36585D01*
X16622D01*
X16525Y36488D01*
Y36352D01*
X16622Y36255D01*
X16758D01*
X16772Y36268D01*
X26463D01*
X26570Y36313D01*
X26687Y36430D01*
X26732Y36537D01*
Y36818D01*
X26745Y36832D01*
Y36968D01*
X26648Y37065D01*
D02*
G37*
G36*
X5744Y36512D02*
X5557D01*
X5222Y36177D01*
Y36032D01*
X4367D01*
Y36177D01*
X4032Y36512D01*
X3844D01*
Y35940D01*
Y35368D01*
X4032D01*
X4367Y35703D01*
Y35848D01*
X5222D01*
Y35703D01*
X5557Y35368D01*
X5744D01*
Y35940D01*
Y36512D01*
D02*
G37*
G36*
X6032D02*
X5844D01*
Y35990D01*
X6367D01*
Y36177D01*
X6032Y36512D01*
D02*
G37*
G36*
X3744D02*
X3557D01*
X3222Y36177D01*
Y35990D01*
X3744D01*
Y36512D01*
D02*
G37*
G36*
X33733Y47530D02*
X33596D01*
X33500Y47433D01*
Y47296D01*
X33513Y47283D01*
Y35710D01*
X33485Y35682D01*
X21028D01*
X20980Y35729D01*
Y35748D01*
X20890Y35838D01*
X20899Y35888D01*
X27813D01*
X27920Y35933D01*
X28037Y36050D01*
X28082Y36157D01*
Y37738D01*
X28095Y37752D01*
Y37888D01*
X27998Y37985D01*
X27862D01*
X27765Y37888D01*
Y37752D01*
X27778Y37738D01*
Y36220D01*
X27750Y36192D01*
X18667D01*
X18560Y36147D01*
X18443Y36030D01*
X18398Y35923D01*
Y16397D01*
Y15953D01*
X18263Y15817D01*
Y15563D01*
X18443Y15383D01*
X18697D01*
X18877Y15563D01*
Y15817D01*
X18702Y15993D01*
Y16418D01*
X18715Y16450D01*
X18702Y16482D01*
Y35860D01*
X18730Y35888D01*
X20731D01*
X20740Y35838D01*
X20650Y35748D01*
Y35612D01*
X20747Y35515D01*
X20766D01*
X20858Y35423D01*
X20965Y35378D01*
X30100D01*
X30119Y35332D01*
X30085Y35298D01*
Y35255D01*
X30535D01*
Y35298D01*
X30501Y35332D01*
X30520Y35378D01*
X33548D01*
X33655Y35423D01*
X33772Y35540D01*
X33816Y35647D01*
Y47283D01*
X33830Y47296D01*
Y47433D01*
X33733Y47530D01*
D02*
G37*
G36*
X6367Y35890D02*
X5844D01*
Y35368D01*
X6032D01*
X6367Y35703D01*
Y35890D01*
D02*
G37*
G36*
X3744D02*
X3222D01*
Y35703D01*
X3557Y35368D01*
X3744D01*
Y35890D01*
D02*
G37*
G36*
X26708Y34825D02*
X26572D01*
X26518Y34772D01*
X26470Y34792D01*
X24177D01*
X24070Y34747D01*
X24054Y34732D01*
X21802D01*
X21788Y34745D01*
X21652D01*
X21555Y34648D01*
Y34512D01*
X21652Y34415D01*
X21788D01*
X21802Y34428D01*
X24117D01*
X24224Y34473D01*
X24240Y34488D01*
X26470D01*
X26546Y34520D01*
X26572Y34495D01*
X26708D01*
X26805Y34592D01*
Y34728D01*
X26708Y34825D01*
D02*
G37*
G36*
X33293Y34625D02*
X33250D01*
Y34450D01*
X33425D01*
Y34493D01*
X33293Y34625D01*
D02*
G37*
G36*
X33150D02*
X33107D01*
X32975Y34493D01*
Y34450D01*
X33150D01*
Y34625D01*
D02*
G37*
G36*
X5007Y35452D02*
X4582D01*
X4282Y35152D01*
Y34728D01*
X4582Y34428D01*
X5007D01*
X5307Y34728D01*
Y35152D01*
X5007Y35452D01*
D02*
G37*
G36*
X6032Y34512D02*
X5844D01*
Y33990D01*
X6367D01*
Y34177D01*
X6032Y34512D01*
D02*
G37*
G36*
X5744D02*
X5557D01*
X5222Y34177D01*
Y33990D01*
X5744D01*
Y34512D01*
D02*
G37*
G36*
X4032D02*
X3844D01*
Y33990D01*
X4367D01*
Y34177D01*
X4032Y34512D01*
D02*
G37*
G36*
X3744D02*
X3557D01*
X3222Y34177D01*
Y33990D01*
X3744D01*
Y34512D01*
D02*
G37*
G36*
X6367Y33890D02*
X5844D01*
Y33368D01*
X6032D01*
X6367Y33703D01*
Y33890D01*
D02*
G37*
G36*
X5744D02*
X5222D01*
Y33703D01*
X5557Y33368D01*
X5744D01*
Y33890D01*
D02*
G37*
G36*
X4367D02*
X3844D01*
Y33368D01*
X4032D01*
X4367Y33703D01*
Y33890D01*
D02*
G37*
G36*
X3744D02*
X3222D01*
Y33703D01*
X3557Y33368D01*
X3744D01*
Y33890D01*
D02*
G37*
G36*
X25570Y32835D02*
X25527D01*
X25395Y32703D01*
Y32660D01*
X25570D01*
Y32835D01*
D02*
G37*
G36*
Y32560D02*
X25395D01*
Y32517D01*
X25527Y32385D01*
X25570D01*
Y32560D01*
D02*
G37*
G36*
X30535Y35155D02*
X30085D01*
Y35112D01*
X30178Y35018D01*
Y32037D01*
X30065Y31923D01*
Y31880D01*
X30515D01*
Y31923D01*
X30482Y31957D01*
Y35058D01*
X30535Y35112D01*
Y35155D01*
D02*
G37*
G36*
X25858Y32195D02*
X25722D01*
X25625Y32098D01*
Y31962D01*
X25638Y31948D01*
Y31790D01*
X25610Y31762D01*
X23064D01*
X23040Y31772D01*
X22933Y31727D01*
X22888Y31620D01*
Y25300D01*
X22933Y25193D01*
X23052Y25074D01*
X23159Y25029D01*
X24811D01*
X24918Y25074D01*
X25185Y25341D01*
X25669D01*
Y26039D01*
X24971D01*
Y25555D01*
X24748Y25332D01*
X24606D01*
X24587Y25379D01*
X24729Y25521D01*
Y25640D01*
X24320D01*
X23911D01*
Y25521D01*
X24053Y25379D01*
X24034Y25332D01*
X23222D01*
X23192Y25363D01*
Y31458D01*
X25673D01*
X25780Y31503D01*
X25897Y31620D01*
X25942Y31727D01*
Y31948D01*
X25955Y31962D01*
Y32098D01*
X25858Y32195D01*
D02*
G37*
G36*
X27248Y34935D02*
X27112D01*
X27015Y34838D01*
Y34766D01*
X26998Y34726D01*
Y31682D01*
X26985Y31668D01*
Y31532D01*
X27082Y31435D01*
X27218D01*
X27315Y31532D01*
Y31668D01*
X27302Y31682D01*
Y34658D01*
X27345Y34702D01*
Y34838D01*
X27248Y34935D01*
D02*
G37*
G36*
X33425Y34350D02*
X32975D01*
Y34307D01*
X33048Y34233D01*
Y30650D01*
X33020Y30622D01*
X30470D01*
X30442Y30650D01*
Y31663D01*
X30515Y31737D01*
Y31780D01*
X30065D01*
Y31737D01*
X30138Y31663D01*
Y30739D01*
X26676D01*
X26472Y30943D01*
Y32493D01*
X26427Y32600D01*
X26310Y32717D01*
X26203Y32762D01*
X25787D01*
X25713Y32835D01*
X25670D01*
Y32610D01*
Y32385D01*
X25713D01*
X25787Y32458D01*
X26140D01*
X26168Y32430D01*
Y30880D01*
X26213Y30773D01*
X26506Y30480D01*
X26613Y30436D01*
X30227D01*
X30300Y30363D01*
X30407Y30318D01*
X33083D01*
X33190Y30363D01*
X33307Y30480D01*
X33352Y30587D01*
Y34233D01*
X33425Y34307D01*
Y34350D01*
D02*
G37*
G36*
X32808Y29925D02*
X32672D01*
X32575Y29828D01*
Y29823D01*
X32394Y29642D01*
X24662D01*
X24648Y29655D01*
X24512D01*
X24415Y29558D01*
Y29422D01*
X24512Y29325D01*
X24648D01*
X24662Y29338D01*
X32456D01*
X32564Y29383D01*
X32776Y29595D01*
X32808D01*
X32905Y29692D01*
Y29828D01*
X32808Y29925D01*
D02*
G37*
G36*
X26867Y28339D02*
X26731D01*
X26705Y28314D01*
X25890D01*
X25888Y28315D01*
X25752D01*
X25655Y28218D01*
Y28082D01*
X25752Y27985D01*
X25888D01*
X25914Y28010D01*
X26729D01*
X26731Y28009D01*
X26867D01*
X26964Y28106D01*
Y28242D01*
X26867Y28339D01*
D02*
G37*
G36*
X24704Y27525D02*
X24589D01*
X24508Y27444D01*
Y27330D01*
X24589Y27248D01*
X24704D01*
X24785Y27330D01*
Y27444D01*
X24704Y27525D01*
D02*
G37*
G36*
X24310D02*
X24196D01*
X24115Y27444D01*
Y27330D01*
X24196Y27248D01*
X24310D01*
X24392Y27330D01*
Y27444D01*
X24310Y27525D01*
D02*
G37*
G36*
X24704Y27132D02*
X24589D01*
X24508Y27050D01*
Y26936D01*
X24589Y26855D01*
X24704D01*
X24785Y26936D01*
Y27050D01*
X24704Y27132D01*
D02*
G37*
G36*
X24310D02*
X24196D01*
X24115Y27050D01*
Y26936D01*
X24196Y26855D01*
X24310D01*
X24392Y26936D01*
Y27050D01*
X24310Y27132D01*
D02*
G37*
G36*
X24489Y26099D02*
X24370D01*
Y25740D01*
X24729D01*
Y25859D01*
X24489Y26099D01*
D02*
G37*
G36*
X24270D02*
X24151D01*
X23911Y25859D01*
Y25740D01*
X24270D01*
Y26099D01*
D02*
G37*
G36*
X21722Y16057D02*
X21620D01*
Y15740D01*
X21937D01*
Y15842D01*
X21722Y16057D01*
D02*
G37*
G36*
X21520D02*
X21418D01*
X21203Y15842D01*
Y15740D01*
X21520D01*
Y16057D01*
D02*
G37*
G36*
X21937Y15640D02*
X21620D01*
Y15323D01*
X21722D01*
X21937Y15538D01*
Y15640D01*
D02*
G37*
G36*
X21520D02*
X21203D01*
Y15538D01*
X21418Y15323D01*
X21520D01*
Y15640D01*
D02*
G37*
%LPD*%
D57*
X22461Y7690D02*
D03*
D58*
X18179D02*
D03*
D61*
X28820Y49434D02*
D03*
X25320Y25690D02*
D03*
D62*
X29820Y49434D02*
D03*
X24320Y25690D02*
D03*
D65*
X31594Y5190D02*
D03*
D66*
X18686Y42940D02*
D03*
X19686Y43940D02*
D03*
Y44940D02*
D03*
X18686Y43940D02*
D03*
Y44940D02*
D03*
X34546Y5190D02*
D03*
D67*
X24570Y10909D02*
D03*
Y15627D02*
D03*
D68*
Y6972D02*
D03*
Y11690D02*
D03*
D99*
X3250Y11030D02*
X7127D01*
X7713Y6040D02*
Y10444D01*
X7127Y11030D02*
X7713Y10444D01*
Y6040D02*
X23638D01*
X24570Y6972D01*
Y6683D02*
X33524D01*
X34110Y7269D01*
Y8048D02*
X34152Y8090D01*
X34110Y7269D02*
Y8048D01*
D100*
X10020Y39950D02*
Y44003D01*
X10137Y44120D02*
X11880D01*
X10020Y44003D02*
X10137Y44120D01*
X27930Y36157D02*
Y37820D01*
X18667Y36040D02*
X27813D01*
X27930Y36157D01*
X18550Y15710D02*
Y16397D01*
Y35923D01*
Y15710D02*
X18570Y15690D01*
X18550Y35923D02*
X18667Y36040D01*
X30320Y35160D02*
Y35195D01*
Y35160D02*
X30330Y35150D01*
Y31884D02*
Y35150D01*
X30290Y31844D02*
X30330Y31884D01*
X30290Y30587D02*
Y31844D01*
X30310Y35205D02*
X30320Y35195D01*
X33548Y35530D02*
X33665Y35647D01*
X20965Y35530D02*
X33548D01*
X33665Y35647D02*
Y47365D01*
X20815Y35680D02*
X20965Y35530D01*
X32726Y29760D02*
X32740D01*
X32456Y29490D02*
X32726Y29760D01*
X24580Y29490D02*
X32456D01*
X31090Y45650D02*
X32893D01*
X33010Y44700D02*
Y45533D01*
X32893Y45650D02*
X33010Y45533D01*
X27260Y43323D02*
X27270Y43332D01*
Y43368D02*
X27280Y43378D01*
X27270Y46656D02*
X27280Y46646D01*
Y43378D02*
Y46646D01*
X27270Y43332D02*
Y43368D01*
X27270Y46656D02*
Y46670D01*
X18686Y43940D02*
X18765Y44019D01*
Y44392D01*
X18807Y44435D01*
X18936D01*
X18941Y44440D01*
X21230D01*
X24186Y41398D02*
X24320Y41263D01*
X22511Y41398D02*
X24186D01*
X16540Y44890D02*
X16565Y44915D01*
X18661D02*
X18686Y44940D01*
X16565Y44915D02*
X18661D01*
X29820Y49434D02*
X29880Y49494D01*
X29763Y50156D02*
X29880Y50039D01*
X18686Y50156D02*
X29763D01*
X29880Y49494D02*
Y50039D01*
X18686Y44940D02*
Y50156D01*
X24313Y49434D02*
X28820D01*
X24313Y47943D02*
Y49434D01*
X24260Y47890D02*
X24313Y47943D01*
X21720Y34580D02*
X24117D01*
X24177Y34640D01*
X26470D01*
X15520Y41907D02*
X24446D01*
X25204Y41150D01*
X15520Y36880D02*
Y41907D01*
X25832Y28162D02*
X26787D01*
X17920Y38360D02*
X19520D01*
X20070Y38910D01*
X17470Y37910D02*
X17920Y38360D01*
X17470Y36907D02*
X17587Y36790D01*
X17470Y36907D02*
Y37910D01*
X17587Y36790D02*
X19700D01*
X17970Y37823D02*
X18087Y37940D01*
X17970Y37190D02*
Y37823D01*
X18087Y37940D02*
X24290D01*
X20120Y37210D02*
X20450D01*
X19700Y36790D02*
X20120Y37210D01*
X20450D02*
X20460Y37220D01*
X26320Y30880D02*
X26613Y30587D01*
X30290D01*
X26320Y30880D02*
Y32493D01*
X25620Y32610D02*
X26203D01*
X26320Y32493D01*
X30290Y30587D02*
X30407Y30470D01*
X33083D01*
X33200Y30587D01*
Y34400D01*
X26580Y36537D02*
Y36900D01*
X23040Y25300D02*
Y31620D01*
X23050Y31610D01*
X25790Y31727D02*
Y32030D01*
X25673Y31610D02*
X25790Y31727D01*
X23050Y31610D02*
X25673D01*
X23040Y25300D02*
X23159Y25181D01*
X24811D01*
X25320Y25690D01*
X20150Y38393D02*
X21008Y39251D01*
X20150Y38380D02*
Y38393D01*
X21008Y39251D02*
Y39251D01*
X18390Y37610D02*
X19490D01*
X19520Y37640D01*
X26463Y36420D02*
X26580Y36537D01*
X16690Y36420D02*
X26463D01*
X19520Y37640D02*
X26942D01*
X27060Y37757D02*
Y38440D01*
X26942Y37640D02*
X27060Y37757D01*
X24290Y37940D02*
X25160Y38810D01*
X21270Y38290D02*
X24020D01*
X24320Y38590D01*
Y41263D01*
X21008Y39251D02*
X21777Y40020D01*
X25759Y41087D02*
Y44813D01*
X19686Y44940D02*
X25632D01*
X25759Y44813D01*
X21777Y40020D02*
X23920D01*
X27150Y34726D02*
X27180Y34756D01*
Y34770D01*
X27150Y31600D02*
Y34726D01*
X27050Y38450D02*
X27060Y38440D01*
X31080Y45640D02*
X31090Y45650D01*
X25160Y38810D02*
Y40320D01*
X12440Y43993D02*
X12607Y44160D01*
X12440Y42860D02*
Y43993D01*
X12607Y44160D02*
X13790D01*
X12204Y37329D02*
X13735D01*
X12194Y37340D02*
X12204Y37329D01*
X10611Y37340D02*
X12194D01*
X8699Y38533D02*
Y41700D01*
X8752Y38480D02*
X11680D01*
X7360Y37340D02*
X10611D01*
D101*
X26787Y28162D02*
X26799Y28174D01*
X25820Y28150D02*
X25832Y28162D01*
X8699Y38533D02*
X8752Y38480D01*
X18570Y16397D02*
X18623Y16450D01*
X18570Y15690D02*
Y16397D01*
X10611Y37340D02*
X10661Y37390D01*
X3794Y35940D02*
X5794D01*
D104*
X29920Y8090D02*
D03*
X31003Y23247D02*
D03*
X34152D02*
D03*
Y8090D02*
D03*
D105*
X19686Y42940D02*
D03*
D106*
X18570Y15690D02*
D03*
Y9690D02*
D03*
X21570Y15690D02*
D03*
D107*
Y9690D02*
D03*
D108*
X3250Y8530D02*
D03*
D109*
Y11030D02*
D03*
D110*
X4794Y34940D02*
D03*
X3794Y35940D02*
D03*
Y33940D02*
D03*
X5794D02*
D03*
Y35940D02*
D03*
D111*
X29570Y4456D02*
D03*
X20909D02*
D03*
D112*
X35433Y51181D02*
D03*
X1969D02*
D03*
Y1969D02*
D03*
X35433D02*
D03*
D113*
X27930Y37820D02*
D03*
X30310Y35205D02*
D03*
X24580Y29490D02*
D03*
X33010Y44700D02*
D03*
X27260Y43323D02*
D03*
X27270Y46670D02*
D03*
X21230Y44440D02*
D03*
X22511Y41398D02*
D03*
X21720Y34580D02*
D03*
X26799Y28174D02*
D03*
X20070Y39090D02*
D03*
X20460Y37220D02*
D03*
X25620Y32610D02*
D03*
X26580Y36900D02*
D03*
X26640Y34660D02*
D03*
X20815Y35680D02*
D03*
X25790Y32030D02*
D03*
X20150Y38380D02*
D03*
X18390Y37610D02*
D03*
X17970Y37190D02*
D03*
X21270Y38290D02*
D03*
X16690Y36420D02*
D03*
X25204Y41150D02*
D03*
X25759Y41087D02*
D03*
X23920Y40020D02*
D03*
X27180Y34770D02*
D03*
X27490Y39010D02*
D03*
X27050Y38450D02*
D03*
X30940Y45660D02*
D03*
X33665Y47365D02*
D03*
X33200Y34400D02*
D03*
X30290Y31830D02*
D03*
X25820Y28150D02*
D03*
X12440Y42860D02*
D03*
X12010Y44120D02*
D03*
X10020Y39950D02*
D03*
X13790Y44160D02*
D03*
X13735Y37329D02*
D03*
X8699Y41700D02*
D03*
X11680Y38480D02*
D03*
X32740Y29760D02*
D03*
X25160Y40320D02*
D03*
X15520Y36880D02*
D03*
X24260Y47890D02*
D03*
X27150Y31600D02*
D03*
D114*
X24647Y26993D02*
D03*
X24253D02*
D03*
X24647Y27387D02*
D03*
X24253D02*
D03*
D115*
X16540Y44890D02*
D03*
D116*
X7360Y37340D02*
D03*
M02*
